<svg width="173" height="64" viewBox="0 0 173 64" fill="none" xmlns="http://www.w3.org/2000/svg">
<g clip-path="url(#clip0_1506_3141)">
<path d="M88.9321 21.1981L97.1273 20.6682C97.3143 22.0087 97.6571 23.0062 98.218 23.7232C99.1216 24.8455 100.368 25.4066 102.02 25.4066C103.235 25.4066 104.201 25.1261 104.855 24.5337C105.478 24.0661 105.852 23.318 105.852 22.5386C105.852 21.7904 105.51 21.0734 104.917 20.6058C104.294 20.0447 102.83 19.4836 100.524 18.9848C96.7534 18.1431 94.0424 17.0208 92.4533 15.5868C90.8641 14.2464 89.9604 12.2824 90.0227 10.1938C90.0227 8.75976 90.459 7.32576 91.2692 6.14115C92.204 4.80068 93.4816 3.74076 95.0084 3.14846C96.6599 2.43146 98.9658 2.05737 101.864 2.05737C105.416 2.05737 108.127 2.71202 109.997 4.0525C111.866 5.36181 112.988 7.48163 113.331 10.3808L105.229 10.8484C105.011 9.60145 104.575 8.69741 103.858 8.10511C103.141 7.5128 102.207 7.23224 100.991 7.23224C99.9941 7.23224 99.2462 7.45046 98.7477 7.85572C98.2803 8.2298 97.9687 8.79093 97.9998 9.41441C97.9998 9.88202 98.2491 10.3185 98.623 10.599C99.0281 10.9731 99.9941 11.316 101.521 11.6278C105.291 12.4383 107.971 13.2488 109.623 14.0905C111.274 14.9322 112.458 15.9609 113.175 17.1767C113.923 18.4237 114.297 19.8577 114.266 21.3228C114.266 23.0686 113.767 24.8143 112.77 26.2795C111.742 27.807 110.308 28.9916 108.626 29.7086C106.849 30.488 104.606 30.8932 101.926 30.8932C97.1897 30.8932 93.9178 29.9892 92.0793 28.1499C90.2409 26.3107 89.1502 24.0038 88.9321 21.1981ZM1.96311 30.4256V2.55616H16.3281C18.9768 2.55616 21.0333 2.77437 22.4356 3.24198C23.8066 3.67842 25.0219 4.58246 25.8321 5.79824C26.7357 7.13872 27.172 8.69741 27.1408 10.3185C27.2343 13.0618 25.8321 15.6804 23.4327 17.052C22.4979 17.582 21.4696 17.9561 20.4101 18.1431C21.1892 18.3613 21.9682 18.7354 22.6537 19.1718C23.1834 19.6083 23.6197 20.1071 24.0248 20.637C24.4922 21.167 24.8973 21.7593 25.24 22.3828L29.4155 30.4568H19.6311L15.0194 21.884C14.4273 20.7929 13.9288 20.0759 13.4613 19.733C12.8381 19.2965 12.0903 19.0783 11.3424 19.0783H10.5946V30.3944H1.96311V30.4256ZM10.5946 13.8411H14.2404C15.0194 13.7788 15.7672 13.6541 16.5151 13.467C17.076 13.3735 17.5745 13.0618 17.9173 12.5941C18.7586 11.4719 18.634 9.88202 17.6057 8.91563C17.0448 8.44802 15.9542 8.19863 14.3962 8.19863H10.5946V13.8411ZM0 54.3048L8.19522 53.7749C8.38218 55.1153 8.72495 56.1129 9.28583 56.8299C10.1583 57.9522 11.4359 58.5445 13.0874 58.5445C14.3027 58.5445 15.2687 58.2639 15.923 57.6716C16.5462 57.1728 16.9202 56.4558 16.9202 55.6765C16.9202 54.9283 16.5774 54.2113 15.9853 53.7437C15.3621 53.1825 13.8976 52.6214 11.5606 52.1226C7.79013 51.2809 5.07916 50.1587 3.48998 48.7247C1.90079 47.3842 0.997137 45.4203 1.05946 43.3316C1.05946 41.8976 1.4957 40.4636 2.30588 39.279C3.24069 37.9385 4.51828 36.8786 6.04514 36.2863C7.69665 35.5693 10.0025 35.1952 12.9005 35.1952C16.4528 35.1952 19.1637 35.8499 21.0333 37.1903C22.903 38.5308 23.9936 40.6195 24.3364 43.5186L16.2346 43.9863C16.0165 42.7393 15.5803 41.8353 14.8636 41.243C14.178 40.6507 13.2121 40.3701 11.9968 40.4013C10.9997 40.4013 10.2518 40.6195 9.75324 41.0559C9.25467 41.43 8.97423 41.9911 9.00539 42.6146C9.00539 43.0822 9.25467 43.5186 9.6286 43.7992C10.0337 44.1733 10.9997 44.5162 12.5265 44.8279C16.297 45.6385 18.9768 46.449 20.6283 47.2907C22.2798 48.1324 23.4639 49.1611 24.1806 50.3769C24.9284 51.6239 25.3023 53.0579 25.3023 54.4919C25.3023 56.2376 24.7726 57.9522 23.8066 59.4173C22.7783 60.9449 21.345 62.1295 19.6623 62.8465C17.8861 63.6258 15.6426 64.0311 12.9628 64.0311C8.22638 64.0311 4.95452 63.127 3.11605 61.2878C1.27758 59.4173 0.249284 57.1105 0 54.3048Z" fill="#F5A73F"/>
<path d="M41.4438 52.1227L48.9846 54.3984C48.5796 56.3 47.7382 58.1081 46.5853 59.698C45.5258 61.1008 44.1236 62.1919 42.5344 62.9089C40.9141 63.6259 38.8575 64 36.3646 64C33.3421 64 30.8492 63.5636 28.9484 62.6907C27.0165 61.8178 25.365 60.2591 23.9628 58.0458C22.5605 55.8324 21.875 52.9956 21.875 49.5353C21.875 44.9216 23.0903 41.3677 25.5519 38.905C28.0136 36.4423 31.4724 35.1953 35.9596 35.1953C39.4807 35.1953 42.2228 35.9123 44.2483 37.3151C46.2425 38.7491 47.7382 40.9313 48.7354 43.8617L41.1322 45.545C40.9452 44.8904 40.6648 44.2357 40.2909 43.6746C39.8235 43.02 39.2314 42.5212 38.5147 42.1471C37.798 41.773 36.9879 41.6171 36.1777 41.6171C34.2146 41.6171 32.7189 42.3965 31.6906 43.9864C30.9115 45.1398 30.5065 46.979 30.5065 49.473C30.5065 52.5592 30.9739 54.679 31.9087 55.8324C32.8435 56.9859 34.1522 57.547 35.8661 57.547C37.5176 57.547 38.764 57.0794 39.6053 56.1753C40.4467 55.209 41.0699 53.8685 41.4438 52.1227ZM59.0495 35.6629H67.6498V45.4203H77.0603V35.6629H85.7229V63.5324H77.0603V52.2474H67.6498V63.5324H59.0495V35.6629Z" fill="#F5A73F"/>
<path d="M84.5391 49.5976C84.5391 45.0462 85.8166 41.4924 88.3406 38.9673C90.8647 36.4422 94.4169 35.1641 98.9352 35.1641C103.578 35.1641 107.13 36.411 109.654 38.9049C112.178 41.3988 113.425 44.8903 113.425 49.3794C113.425 52.6526 112.864 55.3024 111.773 57.391C110.714 59.4485 109.062 61.1319 107.037 62.2542C104.949 63.4076 102.363 63.9999 99.278 63.9999C96.1308 63.9999 93.5445 63.5011 91.4879 62.5036C89.3689 61.4437 87.624 59.7914 86.471 57.7651C85.1934 55.583 84.5391 52.8708 84.5391 49.5976ZM93.1394 49.6287C93.1394 52.4344 93.6691 54.4607 94.6974 55.7077C95.7257 56.9234 97.1591 57.5469 98.9664 57.5469C100.805 57.5469 102.238 56.9546 103.267 55.7388C104.295 54.523 104.793 52.372 104.793 49.2547C104.793 46.6361 104.264 44.7033 103.204 43.5187C102.145 42.3029 100.711 41.7106 98.9041 41.7106C97.3149 41.6482 95.788 42.3341 94.7286 43.5498C93.6691 44.7656 93.1394 46.7919 93.1394 49.6287ZM122.243 49.5976C122.243 45.0462 123.521 41.4924 126.045 38.9673C128.569 36.4422 132.121 35.1641 136.639 35.1641C141.282 35.1641 144.866 36.411 147.359 38.9049C149.852 41.3988 151.129 44.8903 151.129 49.3794C151.129 52.6526 150.568 55.3024 149.478 57.391C148.418 59.4485 146.767 61.1319 144.741 62.2542C142.653 63.4076 140.067 63.9999 136.982 63.9999C133.835 63.9999 131.249 63.5011 129.192 62.5036C127.073 61.4437 125.328 59.7914 124.175 57.7651C122.898 55.583 122.243 52.8708 122.243 49.5976ZM130.844 49.6287C130.844 52.4344 131.373 54.4607 132.402 55.7077C133.43 56.9234 134.863 57.5469 136.671 57.5469C138.509 57.5469 139.942 56.9546 140.971 55.7388C141.999 54.523 142.498 52.372 142.498 49.2547C142.498 46.6361 141.968 44.7033 140.908 43.5187C139.849 42.3029 138.416 41.7106 136.608 41.7106C135.019 41.6482 133.461 42.3341 132.433 43.5498C131.373 44.7656 130.844 46.7919 130.844 49.6287Z" fill="#F5A73F"/>
<path d="M150.225 35.6628H158.825V56.674H172.255V63.5323H150.193V35.6628H150.225Z" fill="#F5A73F"/>
<mask id="mask0_1506_3141" style="mask-type:luminance" maskUnits="userSpaceOnUse" x="112" y="3" width="38" height="36">
<path d="M140.745 34.0547C149.404 27.5268 152.074 16.4612 146.709 9.33874C141.344 2.21634 129.975 1.73432 121.317 8.26214C112.658 14.7899 109.988 25.8556 115.353 32.978C120.718 40.1005 132.086 40.5825 140.745 34.0547Z" fill="white"/>
</mask>
<g mask="url(#mask0_1506_3141)">
<mask id="mask1_1506_3141" style="mask-type:luminance" maskUnits="userSpaceOnUse" x="93" y="-17" width="76" height="76">
<path d="M93.2715 17.626L138.016 -16.1069L168.977 24.9968L124.233 58.7297L93.2715 17.626Z" fill="white"/>
</mask>
<g mask="url(#mask1_1506_3141)">
<mask id="mask2_1506_3141" style="mask-type:luminance" maskUnits="userSpaceOnUse" x="112" y="3" width="38" height="36">
<path d="M140.745 34.0547C149.404 27.5268 152.074 16.4612 146.709 9.33874C141.344 2.21634 129.975 1.73432 121.317 8.26214C112.658 14.7899 109.988 25.8556 115.353 32.978C120.718 40.1005 132.086 40.5825 140.745 34.0547Z" fill="white"/>
</mask>
<g mask="url(#mask2_1506_3141)">
<mask id="mask3_1506_3141" style="mask-type:luminance" maskUnits="userSpaceOnUse" x="105" y="-4" width="52" height="51">
<path d="M105.73 20.3706L137.062 -3.24939L156.509 22.5684L125.177 46.1884L105.73 20.3706Z" fill="white"/>
</mask>
<g mask="url(#mask3_1506_3141)">
<path d="M140.745 34.0547C149.404 27.5268 152.074 16.4612 146.709 9.33874C141.344 2.21634 129.975 1.73432 121.317 8.26214C112.658 14.7899 109.988 25.8556 115.353 32.978C120.718 40.1005 132.086 40.5825 140.745 34.0547Z" stroke="#F5A73F" stroke-width="4" stroke-miterlimit="10"/>
</g>
<mask id="mask4_1506_3141" style="mask-type:luminance" maskUnits="userSpaceOnUse" x="110" y="-2" width="43" height="47">
<path d="M110.197 35.8774L121.013 -1.8517L152.072 7.05731L141.257 44.7865L110.197 35.8774Z" fill="white"/>
</mask>
<g mask="url(#mask4_1506_3141)">
<path d="M105.732 20.3723L137.065 -3.24914L156.51 22.5671L125.178 46.1886L105.732 20.3723Z" stroke="#F5A73F" stroke-width="4" stroke-miterlimit="10"/>
</g>
<path d="M140.745 34.0547C149.404 27.5268 152.074 16.4612 146.709 9.33874C141.344 2.21634 129.975 1.73432 121.317 8.26214C112.658 14.7899 109.988 25.8556 115.353 32.978C120.718 40.1005 132.086 40.5825 140.745 34.0547Z" stroke="#F5A73F" stroke-width="4" stroke-miterlimit="10"/>
<mask id="mask5_1506_3141" style="mask-type:luminance" maskUnits="userSpaceOnUse" x="105" y="-4" width="52" height="51">
<path d="M105.73 20.3706L137.062 -3.24939L156.509 22.5684L125.177 46.1884L105.73 20.3706Z" fill="white"/>
</mask>
<g mask="url(#mask5_1506_3141)">
<path d="M140.745 34.0547C149.404 27.5268 152.074 16.4612 146.709 9.33874C141.344 2.21634 129.975 1.73432 121.317 8.26214C112.658 14.7899 109.988 25.8556 115.353 32.978C120.718 40.1005 132.086 40.5825 140.745 34.0547Z" stroke="#F5A73F" stroke-width="4" stroke-miterlimit="10"/>
</g>
<mask id="mask6_1506_3141" style="mask-type:luminance" maskUnits="userSpaceOnUse" x="110" y="-2" width="43" height="47">
<path d="M110.197 35.8774L121.013 -1.8517L152.072 7.05731L141.257 44.7865L110.197 35.8774Z" fill="white"/>
</mask>
<g mask="url(#mask6_1506_3141)">
<path d="M105.732 20.3723L137.065 -3.24914L156.51 22.5671L125.178 46.1886L105.732 20.3723Z" stroke="#F5A73F" stroke-width="4" stroke-miterlimit="10"/>
</g>
<path d="M93.2715 17.626L138.016 -16.1069L168.977 24.9968L124.233 58.7297L93.2715 17.626Z" stroke="#F5A73F" stroke-width="4" stroke-miterlimit="10"/>
</g>
<path d="M140.745 34.0547C149.404 27.5268 152.074 16.4612 146.709 9.33874C141.344 2.21634 129.975 1.73432 121.317 8.26214C112.658 14.7899 109.988 25.8556 115.353 32.978C120.718 40.1005 132.086 40.5825 140.745 34.0547Z" stroke="#F5A73F" stroke-width="4" stroke-miterlimit="10"/>
<path d="M122.273 19.1095L125.389 16.9273L129.221 22.3828C129.876 23.2556 130.374 24.1909 130.748 25.2196C130.966 25.9989 130.904 26.8406 130.592 27.5888C130.187 28.524 129.533 29.3034 128.66 29.8645C127.632 30.5815 126.76 30.9868 126.012 31.1115C125.295 31.2362 124.547 31.1115 123.862 30.7997C123.114 30.4256 122.46 29.8957 121.961 29.2099L124.641 26.7159C124.859 27.0589 125.139 27.3706 125.451 27.62C125.669 27.7759 125.918 27.8694 126.199 27.8694C126.417 27.8694 126.635 27.7759 126.791 27.6512C127.102 27.4641 127.321 27.09 127.289 26.7159C127.196 26.186 126.978 25.656 126.635 25.2508L122.273 19.1095ZM131.621 22.5698L134.456 20.3253C134.768 20.6994 135.173 20.9799 135.609 21.1358C136.232 21.3229 136.887 21.1982 137.417 20.7929C137.79 20.5435 138.102 20.2006 138.227 19.7642C138.414 19.203 138.102 18.5796 137.541 18.3925C137.448 18.3613 137.354 18.3302 137.261 18.3302C136.887 18.299 136.232 18.4549 135.266 18.8601C133.677 19.5148 132.431 19.7642 131.496 19.6706C130.592 19.5771 129.751 19.1095 129.252 18.3302C128.879 17.8002 128.692 17.1767 128.66 16.5533C128.66 15.8363 128.847 15.1193 129.252 14.527C129.845 13.6853 130.561 12.9683 131.434 12.4071C132.742 11.5031 133.895 11.0667 134.893 11.0667C135.89 11.0667 136.825 11.5343 137.697 12.5006L134.893 14.714C134.332 13.997 133.272 13.8411 132.556 14.4023L132.462 14.4958C132.15 14.6828 131.932 14.9634 131.808 15.3063C131.714 15.5557 131.776 15.8363 131.932 16.0545C132.057 16.2103 132.244 16.335 132.462 16.335C132.711 16.3662 133.148 16.2415 133.771 15.961C135.329 15.3063 136.513 14.9322 137.323 14.8075C138.009 14.6828 138.725 14.7452 139.38 15.0257C139.972 15.2751 140.47 15.7116 140.813 16.2415C141.249 16.865 141.499 17.6132 141.53 18.3925C141.561 19.203 141.343 19.9824 140.907 20.6682C140.346 21.5099 139.629 22.2269 138.788 22.788C137.074 23.9726 135.672 24.4714 134.55 24.2844C133.335 24.0973 132.337 23.4739 131.621 22.5698Z" fill="#F5A73F"/>
</g>
</g>
</g>
<defs>
<clipPath id="clip0_1506_3141">
<rect width="172.255" height="64" fill="white"/>
</clipPath>
</defs>
</svg>
